<svg width="20" height="20" viewBox="0 0 20 20" fill="none" xmlns="http://www.w3.org/2000/svg">
<path d="M7.40387 5.01202C5.04887 7.44902 5.56287 11.494 8.26087 13.285C8.34987 13.345 8.46787 13.333 8.54387 13.258C9.11187 12.703 9.59287 12.165 10.0139 11.482C10.0291 11.4571 10.039 11.4293 10.043 11.4003C10.047 11.3714 10.045 11.3419 10.0371 11.3138C10.0292 11.2856 10.0156 11.2594 9.99718 11.2367C9.97873 11.2141 9.95582 11.1955 9.92987 11.182C9.48494 10.9268 9.12047 10.552 8.87787 10.1C8.59257 9.54433 8.51356 8.90548 8.65487 8.29702C8.82287 7.48202 9.69787 6.72402 10.3659 6.02302L10.3619 6.02102L12.8659 3.46602C13.1034 3.22386 13.3865 3.03115 13.6989 2.89901C14.0113 2.76688 14.3467 2.69794 14.6859 2.69617C15.0251 2.6944 15.3613 2.75985 15.675 2.88872C15.9888 3.0176 16.2739 3.20735 16.5139 3.44702C17.0031 3.92926 17.2816 4.5855 17.2885 5.27239C17.2954 5.95928 17.0302 6.62101 16.5509 7.11302L15.0339 8.67302C14.9995 8.70848 14.9757 8.75279 14.9651 8.801C14.9545 8.84922 14.9576 8.89943 14.9739 8.94602C15.3239 9.95802 15.4089 11.386 15.1749 12.465C15.1689 12.495 15.2059 12.515 15.2279 12.493L18.4559 9.19802C20.5179 7.09302 20.4999 3.66702 18.4159 1.58302C17.9097 1.07796 17.3086 0.678108 16.6472 0.406547C15.9857 0.134986 15.2771 -0.00291302 14.562 0.000805676C13.847 0.00452437 13.1398 0.149787 12.4812 0.428214C11.8227 0.70664 11.2257 1.11272 10.7249 1.62302L7.41687 4.99802L7.40387 5.01202Z" fill="white" fill-opacity="0.5"/>
<path d="M13.4389 13.75C13.441 13.749 13.443 13.748 13.4449 13.747C14.1039 12.543 14.2329 11.161 13.9249 9.81402L13.9229 9.81602L13.9219 9.81502C13.5935 8.54322 12.8155 7.43344 11.7319 6.69102C11.6812 6.66031 11.6224 6.64534 11.5632 6.64801C11.5039 6.65068 11.4467 6.67087 11.3989 6.70602C10.8459 7.15402 10.3039 7.72702 9.94695 8.46002C9.9199 8.5152 9.91476 8.57858 9.93257 8.6374C9.95039 8.69622 9.98983 8.74611 10.0429 8.77702C10.4579 9.01702 10.8329 9.37002 11.0829 9.83802C11.2789 10.168 11.4719 10.796 11.3469 11.47C11.2309 12.364 10.3279 13.184 9.61095 13.923C9.06495 14.482 7.67595 15.897 7.12095 16.465C6.63871 16.9542 5.98247 17.2327 5.29558 17.2396C4.60869 17.2466 3.94696 16.9814 3.45495 16.502C2.96561 16.0199 2.68695 15.3637 2.67983 14.6769C2.67271 13.99 2.93771 13.3282 3.41695 12.836L4.93795 11.272C4.97172 11.2372 4.99535 11.1939 5.00628 11.1467C5.01721 11.0994 5.01502 11.0501 4.99995 11.004C4.66195 9.96801 4.56995 8.57202 4.78295 7.49402C4.78895 7.46402 4.75195 7.44502 4.72995 7.46702L1.55095 10.712C-0.532052 12.838 -0.515052 16.3 1.59095 18.405C3.71595 20.488 7.16095 20.453 9.24395 18.327C9.96695 17.517 13.0649 14.649 13.4389 13.75Z" fill="white" fill-opacity="0.5"/>
</svg>
